<svg viewBox="0 0 74.76 24.39" xmlns="http://www.w3.org/2000/svg"><g fill="#f2f0eb" stroke="#1b1b1b" stroke-miterlimit="10" stroke-width=".25"><path d="m3.77 9.93c-.7 0-1.36-.09-2-.26s-1.15-.39-1.54-.65l.78-1.76c.38.24.81.44 1.3.59.49.16.98.23 1.47.23.34 0 .6-.03.8-.08.2-.06.34-.14.43-.24s.14-.23.14-.37c0-.18-.09-.33-.26-.44-.18-.11-.41-.2-.69-.28s-.59-.15-.92-.22-.67-.16-1.01-.27-.66-.26-.94-.44-.51-.42-.68-.72-.26-.67-.26-1.12c0-.5.14-.95.41-1.36s.68-.74 1.24-.98c.55-.25 1.24-.37 2.06-.37.55 0 1.09.06 1.63.19.53.12 1 .31 1.41.56l-.72 1.75c-.4-.22-.8-.39-1.19-.49s-.77-.16-1.14-.16c-.33 0-.59.04-.79.11s-.34.16-.43.28c-.09.11-.13.23-.13.36 0 .19.09.34.26.45.18.11.4.2.68.26.28.07.59.14.93.21s.68.16 1.01.27c.34.11.65.25.93.43s.51.42.69.71.26.66.26 1.1c0 .49-.14.94-.41 1.35-.28.41-.69.74-1.24.99s-1.24.37-2.08.37z"/><path d="m13.02 3.25v3.16c0 .35-.05.64-.16.87-.1.23-.25.39-.44.5-.19.1-.39.16-.62.16-.34 0-.61-.11-.8-.33s-.28-.58-.28-1.09v-3.26h-2.28v3.64c0 .69.12 1.25.35 1.7.24.44.56.77.98.98s.89.31 1.42.31c.5 0 .95-.12 1.37-.35.21-.12.4-.27.56-.44v.69h2.16v-6.54h-2.28z"/><path d="m19.14 9.87c-.55 0-1.09-.06-1.61-.19s-.95-.29-1.27-.48l.67-1.56c.31.18.67.33 1.08.44s.81.17 1.2.17.65-.04.8-.13.22-.2.22-.34c0-.12-.07-.21-.2-.28s-.32-.11-.55-.14-.48-.06-.75-.1-.54-.09-.82-.17-.53-.18-.76-.32-.41-.32-.55-.56-.2-.54-.2-.91c0-.42.12-.79.37-1.11s.6-.58 1.07-.77 1.05-.29 1.73-.29c.46 0 .92.05 1.39.14.47.1.86.24 1.18.42l-.68 1.56c-.32-.19-.64-.32-.96-.38s-.62-.1-.9-.1c-.38 0-.66.04-.82.13s-.25.19-.25.32.07.23.22.29c.14.07.33.12.55.16s.47.07.75.11.55.09.82.16.52.18.74.32.41.33.55.56c.14.24.21.54.21.92s-.12.75-.36 1.07-.6.58-1.08.77-1.07.29-1.78.29z"/><path d="m27.27 7.9c-.2.14-.43.2-.7.2-.21 0-.37-.06-.5-.19-.12-.13-.19-.32-.19-.56v-2.15h1.49v-1.7h-1.49v-1.7h-2.28v1.7h-.95v1.7h.95v2.18c0 .83.23 1.45.7 1.87s1.11.62 1.94.62c.3 0 .59-.03.87-.09s.52-.16.73-.29l-.58-1.58z"/><path d="m33.93 3.87c-.58-.49-1.4-.73-2.45-.73-.51 0-1.03.07-1.54.2s-.96.32-1.33.56l.76 1.54c.22-.16.5-.29.82-.4.32-.1.64-.16.95-.16.48 0 .83.1 1.05.29.2.18.29.43.31.74h-1.28c-.66 0-1.21.08-1.64.23-.43.16-.74.38-.95.68-.2.3-.31.64-.31 1.04 0 .37.09.7.28 1.01s.46.54.83.72c.36.18.8.26 1.31.26.57 0 1.03-.11 1.37-.34.25-.16.41-.4.55-.67v.9h2.12v-3.61c0-1.03-.29-1.79-.87-2.28zm-1.85 4.37c-.2.12-.43.19-.69.19s-.47-.06-.62-.19-.23-.28-.23-.47c0-.21.07-.37.22-.48s.41-.17.77-.17h.98v.55c-.09.26-.23.45-.44.57z"/><path d="m37.38 2.54c-.42 0-.76-.12-1.01-.35s-.38-.52-.38-.86.13-.63.38-.86.59-.34 1.01-.34.75.11 1.01.32.38.49.38.83c0 .36-.13.66-.38.9s-.59.36-1.01.36zm-1.14 7.22v-6.51h2.28v6.52h-2.28z"/><path d="m46.57 4.4c-.24-.42-.56-.74-.97-.95s-.86-.31-1.37-.31c-.54 0-1.03.12-1.46.37-.22.12-.42.28-.59.46v-.72h-2.18v6.52h2.28v-3.13c0-.37.06-.66.17-.89.11-.22.27-.39.47-.5s.42-.16.67-.16c.32 0 .57.11.76.32s.28.55.28 1.01v3.35h2.29v-3.72c0-.67-.12-1.22-.35-1.64z"/><path d="m53.58 3.87c-.58-.49-1.4-.73-2.45-.73-.51 0-1.03.07-1.54.2s-.96.32-1.33.56l.76 1.54c.22-.16.5-.29.82-.4.32-.1.64-.16.95-.16.48 0 .83.1 1.05.29.2.18.29.43.31.74h-1.28c-.66 0-1.21.08-1.64.23-.43.16-.74.38-.95.68-.2.3-.31.64-.31 1.04 0 .37.09.7.28 1.01s.46.54.83.72c.36.18.8.26 1.31.26.57 0 1.03-.11 1.37-.34.25-.16.41-.4.55-.67v.9h2.12v-3.61c0-1.03-.29-1.79-.87-2.28zm-1.85 4.37c-.2.12-.43.19-.69.19s-.47-.06-.62-.19-.23-.28-.23-.47c0-.21.07-.37.22-.48s.41-.17.77-.17h.98v.55c-.09.26-.23.45-.44.57z"/><path d="m62.75 4.72c-.28-.5-.67-.89-1.15-1.16s-1.02-.41-1.61-.41c-.55 0-1.02.12-1.42.37-.15.09-.27.22-.4.35v-3.01h-2.28v8.9h2.18v-.66c.13.16.28.3.45.4.39.24.87.36 1.46.36s1.13-.14 1.61-.41c.48-.28.87-.66 1.15-1.16s.43-1.09.43-1.78-.14-1.29-.43-1.79zm-2.06 2.63c-.12.24-.29.41-.49.53s-.43.18-.69.18-.49-.06-.69-.18-.37-.3-.49-.53-.19-.51-.19-.83c0-.34.06-.63.19-.85.12-.22.29-.4.49-.52s.43-.18.69-.18.49.06.69.18.37.29.49.52c.12.22.19.51.19.85 0 .32-.06.6-.19.83z"/><path d="m64.23 9.76v-8.9h2.28v8.9z"/><path d="m74.16 4.69c-.32-.5-.74-.88-1.26-1.15s-1.11-.4-1.75-.4c-.69 0-1.3.14-1.84.43s-.96.69-1.27 1.19c-.31.51-.46 1.09-.46 1.75s.16 1.21.47 1.72c.32.51.76.91 1.33 1.2s1.25.44 2.02.44c.62 0 1.15-.09 1.61-.27s.84-.44 1.14-.77l-1.19-1.26c-.22.19-.45.33-.67.43-.22.09-.5.14-.83.14s-.64-.06-.89-.19c-.25-.12-.44-.3-.57-.53-.06-.1-.09-.21-.13-.32h4.72c0-.09.02-.18.02-.29 0-.1.01-.2.01-.28 0-.72-.16-1.33-.47-1.83zm-3.71.26c.21-.12.45-.18.73-.18s.51.06.71.18.36.29.47.51c.07.13.11.27.13.43h-2.65c.03-.15.07-.3.13-.43.11-.22.27-.39.47-.51z"/><path d="m11.73 15.76-1.76 5.41-1.7-5.41h-2.18l-1.78 5.36-1.69-5.36h-2.45l2.72 8.4h2.56l1.66-5.13 1.61 5.13h2.54l2.72-8.4h-2.27z"/><path d="m20.43 19.09c-.32-.5-.74-.88-1.26-1.15s-1.11-.4-1.75-.4c-.69 0-1.3.14-1.84.43s-.96.69-1.27 1.19c-.31.51-.46 1.09-.46 1.75s.16 1.21.47 1.72c.32.51.76.91 1.33 1.2s1.25.44 2.02.44c.62 0 1.15-.09 1.61-.27s.84-.44 1.14-.77l-1.19-1.26c-.22.19-.45.33-.67.43-.22.09-.5.14-.83.14s-.64-.06-.89-.19c-.25-.12-.44-.3-.57-.53-.06-.1-.09-.21-.13-.32h4.72c0-.09.02-.18.02-.29 0-.1.01-.2.01-.28 0-.72-.16-1.33-.47-1.83zm-3.71.26c.21-.12.45-.18.73-.18s.51.06.71.18.36.29.47.51c.07.13.11.27.13.43h-2.65c.03-.15.07-.3.13-.43.11-.22.27-.39.47-.51z"/><path d="m28.82 19.12c-.28-.5-.67-.89-1.15-1.16s-1.02-.41-1.61-.41c-.55 0-1.02.12-1.42.37-.15.09-.27.22-.4.35v-3h-2.28v8.9h2.18v-.66c.13.16.28.3.45.4.39.24.87.36 1.46.36s1.13-.14 1.61-.41c.48-.28.87-.66 1.15-1.16s.43-1.09.43-1.78-.14-1.29-.43-1.79zm-2.06 2.63c-.12.24-.29.41-.49.53s-.43.18-.69.18-.49-.06-.69-.18-.37-.3-.49-.53-.19-.51-.19-.83c0-.34.06-.63.19-.85.12-.22.29-.4.49-.52s.43-.18.69-.18.49.06.69.18.37.29.49.52c.12.22.19.51.19.85 0 .32-.06.6-.19.83z"/><path d="m33.92 24.16v-8.4h2.38v8.4z"/><path d="m44.43 18.8c-.24-.42-.56-.74-.97-.95s-.86-.31-1.37-.31c-.54 0-1.03.12-1.46.37-.22.12-.42.28-.59.46v-.72h-2.18v6.52h2.28v-3.13c0-.37.06-.66.17-.89.11-.22.27-.39.47-.5s.42-.16.67-.16c.32 0 .57.11.76.32s.28.55.28 1.01v3.35h2.29v-3.72c0-.67-.12-1.22-.35-1.64z"/><path d="m50.93 15.26v2.99c-.12-.13-.24-.25-.38-.34-.39-.24-.86-.37-1.42-.37-.58 0-1.12.14-1.61.41-.49.28-.87.66-1.16 1.16-.28.5-.43 1.1-.43 1.79s.14 1.28.43 1.78c.28.5.67.89 1.16 1.16.49.28 1.02.41 1.61.41s1.07-.12 1.46-.36c.17-.11.32-.25.45-.4v.66h2.17v-8.9h-2.28zm-.14 6.49c-.12.24-.28.41-.49.53-.2.12-.43.18-.69.18s-.5-.06-.7-.18-.37-.3-.49-.53-.18-.51-.18-.83c0-.34.06-.63.18-.85s.28-.4.49-.52c.2-.12.44-.18.7-.18s.49.06.69.18.37.29.49.52c.12.22.18.51.18.85 0 .32-.06.6-.18.83z"/><path d="m60.85 19.09c-.32-.5-.74-.88-1.26-1.15s-1.11-.4-1.75-.4c-.69 0-1.3.14-1.84.43s-.96.69-1.27 1.19c-.31.51-.46 1.09-.46 1.75s.16 1.21.47 1.72c.32.51.76.91 1.33 1.2s1.25.44 2.02.44c.62 0 1.15-.09 1.61-.27s.84-.44 1.14-.77l-1.19-1.26c-.22.19-.45.33-.67.43-.22.09-.5.14-.83.14s-.64-.06-.89-.19c-.25-.12-.44-.3-.57-.53-.06-.1-.09-.21-.13-.32h4.72c0-.09.02-.18.02-.29 0-.1.01-.2.01-.28 0-.72-.16-1.33-.47-1.83zm-3.71.26c.21-.12.45-.18.73-.18s.51.06.71.18.36.29.47.51c.07.13.11.27.13.43h-2.65c.03-.15.07-.3.13-.43.11-.22.27-.39.47-.51z"/><path d="m68.93 24.16-2.49-3.34 2.4-3.18h-2.4l-1.21 1.66-1.15-1.66h-2.57l2.4 3.27-2.48 3.25h2.48l1.25-1.7 1.15 1.7z"/></g></svg>